<svg xmlns="http://www.w3.org/2000/svg" xmlns:xlink="http://www.w3.org/1999/xlink" viewBox="0,0,256,256" width="50px" height="50px" fill-rule="nonzero"><g fill="#ffffff" fill-rule="nonzero" stroke="none" stroke-width="1" stroke-linecap="butt" stroke-linejoin="miter" stroke-miterlimit="10" stroke-dasharray="" stroke-dashoffset="0" font-family="none" font-weight="none" font-size="none" text-anchor="none" style="mix-blend-mode: normal"><g transform="scale(5.12,5.12)"><path d="M25,1.98438l-17,3.1875v13.18359c0,0.77344 0.15625,19.09766 16.46484,29.48828l0.53516,0.34375l0.53906,-0.34375c16.27344,-10.44141 16.46094,-28.71875 16.46094,-29.49219v-13.17969zM25,4.01563l15,2.8125v1.96875l-15,-2.8125l-15,2.8125v-1.96875zM25,8.01563l15,2.8125v2.44922c-4.80859,-1.63672 -9.84375,-2.47656 -15,-2.47656c-6.70703,0 -11.91016,1.35938 -15,2.44531v-2.41797zM25,12.80078c5.16406,0 10.20703,0.86719 15,2.58594v2.96484c0,0.71875 -0.17578,17.54688 -15,27.45703c-14.85547,-9.86328 -15,-26.73047 -15,-27.45703v-2.98047c2.82031,-1.05859 8.0625,-2.57031 15,-2.57031zM25.5,16.09766c-0.19922,0.20313 -0.40234,0.5 -0.40234,1c-1.19922,0 -1.29687,0.70313 -1.59766,0.90234c-1.5,0.60156 -1.69922,0.19922 -2.09766,0.59766c-0.20312,0.20313 -0.30469,0.40234 -0.30469,0.60156c-0.09766,0.5 0.10156,0.89844 0.70313,0.89844c0.19922,0 0.59766,-0.29687 0.89844,-0.29687c0.5,0 1,0.5 1.80078,0.5c0.30078,0 0.59766,-0.19922 1.09766,-1c-0.19922,1.10156 -0.5,1.5 -1.39844,1.5c-0.10156,0.69922 -0.80078,3.19922 -1.5,3.79688c-1.19922,0.90234 -1.80078,1.10156 -2.5,1.20313c-0.10156,0.10156 -0.79687,0 -0.89844,0.29688c-0.10156,0.30078 -0.10156,0.50391 0,0.90234c0,0.39844 0.19922,1.09766 0.5,2.09766c0,0.20313 0.19922,0.40234 0.29688,0.40234c0.20313,0.10156 0.20313,0.19922 0.20313,0.19922c0.10156,1 0.60156,1.5 0.60156,1.5c0,0 0.99609,-1.19922 0.79688,-1.60156c-0.10156,-0.19922 -0.69922,-0.39844 -0.69922,-0.39844v-0.39844c-0.10156,-0.19922 -0.60156,-1.60156 -0.5,-1.60156h1.69922c0,0 1.10156,1.90234 3.20313,3.20313c0.29688,-0.30078 0.79688,-0.80469 1.59766,-0.70312c-2,0.19922 -2,2.40234 -1.5,3.30078c0.69922,1.39844 0.69922,1.69922 0.59766,2c-0.5,0.80078 -0.59766,0.89844 -0.79687,1.19922c-0.10156,0.19922 0.09766,0.30078 -0.10156,0.39844c-1,0.5 -1.19922,1.30469 -1.19922,1.30469c0,0 1.69922,0.19922 2,-0.10156c0.10156,-0.10156 0.09766,-0.60156 0.09766,-0.60156c0,0 0.40234,0.10156 0.5,0.10156c0.10156,-0.10156 0.30469,-0.10156 0.30469,-0.20312c0,-0.09766 0.19531,-0.49609 0.19531,-0.59766c0.10156,-0.39844 0.60156,-1.30078 0.90234,-1.5c0,-0.10156 -0.5,-0.69922 -0.5,-1c-0.10156,-1.30078 1,-1.19922 2.40234,-2.90234c0.09766,-0.19922 0.29688,-0.09766 0.39844,-0.09766c2.60156,0 2.30078,-2.10156 2.69922,-4.40234c-0.80078,0.90234 -0.80078,0.40234 -0.80078,0.40234c-0.10156,-0.89844 0.60156,-2.40234 0.60156,-2.40234c0,0 -1,0.60156 -1.10156,1.40234c-0.39844,-0.80078 0.30078,-2 0.30078,-2c-0.39844,0.19922 -0.90234,0.60156 -0.90234,2c0,3.60156 -0.09766,3.39844 -0.39844,4c-0.10156,0.10156 -0.39844,0.10156 -0.29687,-0.19922c-0.10156,-0.39844 0.09766,-1.30078 -2.30469,-2.70312c-1.09766,-0.69922 -1.69922,-1.79687 -1.5,-2.29687c0.30078,0.30078 1.00391,0.29688 1.40234,0.29688c-0.30078,-0.19922 -1,-0.69922 -1.19922,-1c0.30078,0.20313 1.60156,0.50391 2,0.30469c-0.69922,-0.30078 -1.60156,-1.00391 -1.80078,-1.40234c0.19922,0.19922 1.30078,0.39844 1.80078,0.19922c-0.5,-0.19922 -1.30078,-0.59766 -1.5,-1.19922c0.39844,0.10156 0.69922,0.19922 1.69922,0c-0.80078,-0.30078 -1.39844,-0.90234 -1.69922,-1.30078c0.30078,0 1.30078,0.10156 1.69922,0.39844c-0.19922,-0.59766 -1.10156,-1.09766 -1.80078,-1.59766c0.19922,0 1,0.10156 1.39844,0c-0.39844,-0.39844 -1.29687,-0.80078 -1.39844,-1c0.30078,0 0.69922,-0.19922 0.89844,-0.40234c-1.29687,0 -1.5,-1 -2,-1c-0.19922,-0.09766 -0.49609,-0.79687 -0.59766,-1zM20.69922,21.30078c-0.19922,0 -2.19922,1.79688 -2.19922,1.89844c-0.10156,0.19922 -0.09766,0.30078 -0.09766,0.30078c-1,0.30078 -1.30469,0.90234 -1.30469,0.90234c0,0 1.30078,0.79688 1.60156,0.5c0.19922,-0.20312 0.30078,-0.80469 0.30078,-0.80469c0,0 0.30078,0.00391 0.40234,-0.09766l0.29688,-0.30078c0.30078,-0.30078 0.89844,-0.79687 0.89844,-0.79687c0.20313,0.19922 0.80078,1 1.10156,1.39844c0.19922,-0.10156 0.69922,-0.5 1,-1.10156c-0.69922,-0.80078 -1.5,-1.89844 -2,-1.89844zM24.09766,30.09766c-0.09766,1.60156 0.10156,2.80078 -0.09766,2.90234c-0.89844,0.30078 -1.40234,-0.10156 -1.80078,0c-0.19922,0.10156 -0.09766,0.30078 -0.29687,0.19922c-1.10156,-0.19922 -1.70312,0.39844 -1.70312,0.39844c0,0 1.20313,1.40234 1.60156,1.30469c0.10156,0 0.5,-0.40234 0.5,-0.40234c0,0 0.09766,0.39844 0.29688,0.5c0.10156,0 0.30078,0.10156 0.40234,0c0.10156,-0.10156 0.39844,-0.30078 0.5,-0.30078c0.30078,-0.19922 1.40234,-0.39844 1.80078,-0.39844c0.10156,-0.19922 0.19922,-0.40234 0.10156,-0.60156c0,0 -1,-1 -0.5,-2.89844c-0.10156,-0.10156 -0.70312,-0.60156 -0.80469,-0.70312z"></path></g></g></svg>